<svg viewBox="0 0 19 20" fill="none"
    xmlns="http://www.w3.org/2000/svg">
    <ellipse cx="9.34814" cy="9.89028" rx="9.34814" ry="9.89028" fill="#FFB800"/>
    <g clip-path="url(#clip0_20_260)">
        <path d="M8.86007 16.1175C8.75154 16.118 8.64543 16.0855 8.55591 16.0241C8.4664 15.9627 8.39774 15.8755 8.35912 15.7741L7.50402 13.5505C7.4867 13.5057 7.46021 13.465 7.42624 13.431C7.39227 13.3971 7.35158 13.3706 7.30677 13.3532L5.08254 12.4975C4.98122 12.4586 4.89407 12.3899 4.8326 12.3005C4.77113 12.211 4.73822 12.1051 4.73822 11.9965C4.73822 11.888 4.77113 11.782 4.8326 11.6926C4.89407 11.6032 4.98122 11.5345 5.08254 11.4956L7.30613 10.6405C7.35094 10.6232 7.39163 10.5967 7.4256 10.5627C7.45957 10.5287 7.48606 10.4881 7.50338 10.4432L8.35912 8.21901C8.39801 8.11769 8.4667 8.03055 8.55614 7.96907C8.64557 7.9076 8.75155 7.87469 8.86007 7.87469C8.9686 7.87469 9.07457 7.9076 9.16401 7.96907C9.25344 8.03055 9.32214 8.11769 9.36103 8.21901L10.2161 10.4426C10.2334 10.4874 10.2599 10.5281 10.2939 10.5621C10.3279 10.596 10.3686 10.6225 10.4134 10.6399L12.6241 11.4904C12.7295 11.5295 12.8204 11.6002 12.8842 11.6927C12.9481 11.7853 12.9819 11.8953 12.981 12.0077C12.9794 12.1143 12.9458 12.218 12.8846 12.3054C12.8233 12.3927 12.7373 12.4596 12.6376 12.4975L10.414 13.3526C10.3692 13.3699 10.3285 13.3964 10.2945 13.4304C10.2606 13.4643 10.2341 13.505 10.2168 13.5498L9.36103 15.7741C9.3224 15.8755 9.25375 15.9627 9.16423 16.0241C9.07471 16.0855 8.9686 16.118 8.86007 16.1175V16.1175Z" fill="white"/>
        <path d="M6.2846 8.90602C6.22097 8.90601 6.15884 8.88673 6.10639 8.85072C6.05394 8.8147 6.01363 8.76364 5.99077 8.70426L5.6289 7.76331C5.62106 7.74273 5.60895 7.72404 5.59338 7.70847C5.57781 7.6929 5.55912 7.6808 5.53854 7.67295L4.59759 7.31108C4.53822 7.28822 4.48716 7.2479 4.45116 7.19545C4.41515 7.143 4.39587 7.08087 4.39587 7.01725C4.39587 6.95363 4.41515 6.8915 4.45116 6.83905C4.48716 6.78659 4.53822 6.74628 4.59759 6.72342L5.53854 6.36155C5.5591 6.35367 5.57777 6.34155 5.59333 6.32598C5.6089 6.31041 5.62102 6.29174 5.6289 6.27119L5.98755 5.33861C6.00778 5.2837 6.04258 5.23535 6.08823 5.19874C6.13387 5.16214 6.18863 5.13866 6.24661 5.13084C6.31623 5.12238 6.38668 5.1374 6.44679 5.17352C6.5069 5.20964 6.55323 5.26479 6.57843 5.33024L6.9403 6.27119C6.94818 6.29174 6.9603 6.31041 6.97587 6.32598C6.99144 6.34155 7.01011 6.35367 7.03066 6.36155L7.97161 6.72342C8.03099 6.74628 8.08204 6.78659 8.11805 6.83905C8.15406 6.8915 8.17333 6.95363 8.17333 7.01725C8.17333 7.08087 8.15406 7.143 8.11805 7.19545C8.08204 7.2479 8.03099 7.28822 7.97161 7.31108L7.03066 7.67295C7.01009 7.6808 6.9914 7.6929 6.97582 7.70847C6.96025 7.72404 6.94815 7.74273 6.9403 7.76331L6.57843 8.70426C6.55558 8.76364 6.51527 8.8147 6.46281 8.85072C6.41036 8.88673 6.34823 8.90601 6.2846 8.90602V8.90602Z" fill="white"/>
        <path d="M12.981 10.6229C12.9116 10.6229 12.8438 10.6018 12.7866 10.5625C12.7294 10.5232 12.6855 10.4675 12.6606 10.4027L12.1703 9.12842C12.1617 9.10596 12.1485 9.08557 12.1315 9.06856C12.1145 9.05155 12.0941 9.03831 12.0716 9.02968L10.7973 8.53946C10.7326 8.51452 10.6769 8.47055 10.6377 8.41335C10.5984 8.35615 10.5774 8.2884 10.5774 8.21902C10.5774 8.14964 10.5984 8.08189 10.6377 8.02469C10.6769 7.96748 10.7326 7.92352 10.7973 7.89857L12.0716 7.40835C12.0941 7.39973 12.1145 7.38648 12.1315 7.36947C12.1485 7.35246 12.1617 7.33207 12.1703 7.30962L12.6569 6.04436C12.6791 5.98453 12.7171 5.93183 12.7669 5.89188C12.8167 5.85194 12.8764 5.82623 12.9396 5.81749C13.0155 5.8083 13.0924 5.82474 13.158 5.8642C13.2235 5.90367 13.274 5.9639 13.3014 6.03534L13.7917 7.30962C13.8003 7.33207 13.8135 7.35246 13.8305 7.36947C13.8476 7.38648 13.8679 7.39973 13.8904 7.40835L15.1647 7.89857C15.2294 7.92352 15.2851 7.96748 15.3243 8.02469C15.3636 8.08189 15.3846 8.14964 15.3846 8.21902C15.3846 8.2884 15.3636 8.35615 15.3243 8.41335C15.2851 8.47055 15.2294 8.51452 15.1647 8.53946L13.8904 9.02968C13.8679 9.03831 13.8476 9.05155 13.8305 9.06856C13.8135 9.08557 13.8003 9.10596 13.7917 9.12842L13.3014 10.4027C13.2765 10.4675 13.2326 10.5232 13.1754 10.5625C13.1182 10.6018 13.0504 10.6229 12.981 10.6229V10.6229Z" fill="white"/>
    </g>
    <defs>
        <clipPath id="clip0_20_260">
            <rect width="10.9892" height="10.9892" fill="white" transform="translate(4.39569 5.1283)"/>
        </clipPath>
    </defs>
</svg>
