<svg viewBox="0 0 20 20" fill="none"
    xmlns="http://www.w3.org/2000/svg">
    <g clip-path="url(#clip0_20_256)">
        <path fill-rule="evenodd" clip-rule="evenodd" d="M9.97214 0.732605C4.8181 0.732605 0.65155 4.92987 0.65155 10.1225C0.65155 14.2732 3.3212 17.7867 7.02471 19.0302C7.48774 19.1237 7.65735 18.8281 7.65735 18.5796C7.65735 18.3619 7.64209 17.6157 7.64209 16.8383C5.04933 17.398 4.50941 15.7189 4.50941 15.7189C4.09273 14.6307 3.47535 14.351 3.47535 14.351C2.62674 13.7758 3.53717 13.7758 3.53717 13.7758C4.4785 13.838 4.97244 14.7396 4.97244 14.7396C5.8056 16.1698 7.14815 15.7657 7.68826 15.5169C7.76534 14.9106 8.0124 14.4908 8.27473 14.2577C6.20682 14.04 4.03111 13.2317 4.03111 9.62489C4.03111 8.59885 4.40123 7.7594 4.9877 7.10653C4.89517 6.87339 4.57103 5.90936 5.08042 4.61908C5.08042 4.61908 5.86741 4.3703 7.6419 5.58292C8.40162 5.37738 9.18511 5.27282 9.97214 5.27194C10.7591 5.27194 11.5614 5.38088 12.3022 5.58292C14.0769 4.3703 14.8639 4.61908 14.8639 4.61908C15.3733 5.90936 15.0489 6.87339 14.9564 7.10653C15.5583 7.7594 15.9132 8.59885 15.9132 9.62489C15.9132 13.2317 13.7375 14.0244 11.6541 14.2577C11.9937 14.553 12.2867 15.1126 12.2867 15.9988C12.2867 17.258 12.2715 18.2686 12.2715 18.5794C12.2715 18.8281 12.4413 19.1237 12.9041 19.0304C16.6076 17.7865 19.2773 14.2732 19.2773 10.1225C19.2925 4.92987 15.1107 0.732605 9.97214 0.732605Z" fill="#24292F"/>
    </g>
    <defs>
        <clipPath id="clip0_20_256">
            <rect width="18.6969" height="18.3153" fill="white" transform="translate(0.65155 0.732605)"/>
        </clipPath>
    </defs>
</svg>
