<svg viewBox="0 0 107 20" fill="none"
    xmlns="http://www.w3.org/2000/svg">
    <g clip-path="url(#clip0_106_6)">
        <path d="M0 0.399719H3.29826L4.65079 12.119L6.33552 0.423396H8.96938L10.7253 12.0717L12.0778 0.399719H15.3286L12.8608 19.5767H9.51518L7.66432 7.43129L5.88467 19.5767H2.4915L0 0.399719Z" fill="#0B0B0B" />
        <path d="M19.27 11.9769L15.5209 0.399719H19.1988L21.2632 7.14718L23.1615 0.399719H26.7444L23.0428 11.9769V19.5767H19.27V11.9769Z" fill="#0B0B0B" />
        <path d="M27.6986 0.399719H36.0748V3.0987H31.5901V8.1889H35.0545V10.9116H31.5901V16.9251H36.1223V19.5767H27.6986V0.399719Z" fill="#0B0B0B" />
        <path d="M36.7408 0.399658H40.0391L41.3916 12.1189L43.0764 0.423335H45.7102L47.4661 12.0716L48.8186 0.399658H52.0694L49.6017 19.5766H46.256L44.4052 7.43123L42.6255 19.5766H39.2324L36.7408 0.399658Z" fill="#D91E26" />
        <path d="M58.8124 19.8371C56.7718 19.8371 55.3164 19.3084 54.4464 18.2508C53.5764 17.1775 53.1414 15.6071 53.1414 13.5394V6.38951C53.1414 4.32187 53.5764 2.76719 54.4464 1.72548C55.3164 0.68376 56.7718 0.162903 58.8124 0.162903C60.8373 0.162903 62.2847 0.691653 63.1547 1.74915C64.0406 2.79087 64.4835 4.33765 64.4835 6.38951V13.5632C64.4835 15.615 64.0406 17.1775 63.1547 18.2508C62.2847 19.3084 60.8373 19.8371 58.8124 19.8371ZM58.8124 17.0434C59.4768 17.0434 59.9198 16.8224 60.1413 16.3805C60.3785 15.9228 60.4972 15.2994 60.4972 14.5102V5.4425C60.4972 4.65332 60.3785 4.04566 60.1413 3.6195C59.9198 3.17756 59.4768 2.95659 58.8124 2.95659C58.1481 2.95659 57.6972 3.17756 57.4599 3.6195C57.2384 4.04566 57.1277 4.65332 57.1277 5.4425V14.5102C57.1277 15.3151 57.2384 15.9385 57.4599 16.3805C57.6814 16.8224 58.1322 17.0434 58.8124 17.0434Z" fill="#D91E26" />
        <path d="M66.3859 0.399658H71.3689C73.4412 0.399658 74.9993 0.778464 76.0434 1.53608C77.0874 2.29369 77.6095 3.60372 77.6095 5.46618C77.6095 6.71308 77.4355 7.72322 77.0874 8.49662C76.7394 9.25427 76.1225 9.83036 75.2366 10.2249L77.8943 19.5766H73.8842L71.7011 10.8878H70.2774V19.5766H66.3859V0.399658ZM71.4401 8.56764C72.3576 8.56764 72.9983 8.34668 73.3621 7.90474C73.7417 7.44702 73.9316 6.73675 73.9316 5.77396C73.9316 4.82694 73.7654 4.13247 73.4333 3.69053C73.1011 3.24859 72.5 3.02762 71.6299 3.02762H70.2774V8.56764H71.4401Z" fill="#D91E26" />
        <path d="M79.508 0.399658H83.3995V8.49662L86.8875 0.399658H90.6841L87.0774 9.01748L90.9691 19.5766H87.0062L84.0401 11.0062L83.3995 12.0479V19.5766H79.508V0.399658Z" fill="#D91E26" />
        <path d="M96.5464 19.8371C94.7745 19.8371 93.4464 19.3557 92.56 18.3929C91.6746 17.4144 91.1918 15.907 91.1127 13.8709L94.4818 13.3027C94.5136 14.5181 94.68 15.4177 94.9809 16.0017C95.2973 16.5699 95.7636 16.854 96.38 16.854C96.8391 16.854 97.1718 16.712 97.3773 16.4278C97.5827 16.128 97.6855 15.7492 97.6855 15.2914C97.6855 14.5338 97.5118 13.8946 97.1636 13.3737C96.8309 12.8371 96.3009 12.2531 95.5736 11.6217L93.5809 9.89345C92.7891 9.23054 92.1809 8.52029 91.7536 7.76269C91.3418 7.00508 91.1364 6.09752 91.1364 5.04002C91.1364 3.47745 91.5955 2.27789 92.5127 1.44137C93.4464 0.589059 94.7273 0.162903 96.3564 0.162903C98.0964 0.162903 99.3073 0.667976 99.9873 1.67812C100.667 2.67249 101.055 3.94307 101.15 5.48985L97.7564 5.98703C97.7255 4.97689 97.6064 4.23506 97.4009 3.76155C97.2109 3.27226 96.8236 3.02762 96.2382 3.02762C95.8109 3.02762 95.4791 3.19335 95.2418 3.5248C95.0045 3.84047 94.8855 4.21928 94.8855 4.66121C94.8855 5.29256 95.02 5.82919 95.2891 6.27114C95.5736 6.69729 96.0164 7.1708 96.6182 7.69166L98.5636 9.39627C99.4809 10.2013 100.201 11.0535 100.723 11.9532C101.245 12.8371 101.505 13.8788 101.505 15.0784C101.505 15.9938 101.3 16.8145 100.889 17.5406C100.477 18.2508 99.8927 18.8112 99.1327 19.2215C98.3891 19.6319 97.5273 19.8371 96.5464 19.8371Z" fill="#D91E26" />
        <path d="M104.505 19.4675C105.531 19.4675 106.363 18.6371 106.363 17.6128C106.363 16.5885 105.531 15.7581 104.505 15.7581C103.478 15.7581 102.646 16.5885 102.646 17.6128C102.646 18.6371 103.478 19.4675 104.505 19.4675Z" fill="#0B0B0B" />
    </g>
    <defs>
        <clipPath id="clip0_106_6">
            <rect width="106.364" height="20" fill="white" />
        </clipPath>
    </defs>
</svg>